<svg id="Слой_2" data-name="Слой 2" xmlns="http://www.w3.org/2000/svg" xmlns:xlink="http://www.w3.org/1999/xlink" viewBox="0 0 299.72 120"><defs><style>.cls-2{fill:transeparent;}.cls-3{fill:#fff;}</style><clipPath id="clip-path" transform="translate(-59.46 -1960)"><rect class="cls-1" width="3840" height="2160"/></clipPath></defs><title>Мирный_интерактивная карта_макет сайта</title><g class="cls-2"><path class="cls-3" d="M260.26,2056.1c.95,12.82-9.63,24.08-25.27,23.9s-25.44-9.38-25.44-24.09c0-13.88,10.63-23.59,25.84-23.55,14.33,0,25.72,10,24.87,23.74m-25.8,13.55c8.41,0,13.68-5.06,13.7-13.18,0-8.33-4.88-13.78-12.4-13.8-8.22,0-14.19,5.4-14.09,13,.12,8.46,6.33,14.57,12.79,14" transform="translate(-59.46 -1960)"/><path class="cls-3" d="M111.67,2078.77c-4.17,0-7.89.15-11.58-.12-.82-.06-1.83-1.49-2.24-2.5-3.92-9.53-7.73-19.1-11.57-28.66-.14-.33-.34-.64-1-1.93-3,7.68-5.72,14.62-8.67,22.15H90.29l.33.88c-2.08,1.33-4.12,2.71-6.25,4a100.06,100.06,0,0,1-8.77,4.86,16.76,16.76,0,0,1-5.78,1.33c-3.21.21-6.45.06-10.36.06,1.85-4.48,3.4-8.43,5.1-12.31,4.41-10,9-20,13.28-30.11,1-2.26,2.2-3.08,4.53-2.92a41.8,41.8,0,0,0,6.33,0c2.42-.2,3.66.92,4.58,3,5.53,12.67,11.15,25.31,16.72,38,.53,1.21,1,2.47,1.67,4.32" transform="translate(-59.46 -1960)"/><path class="cls-3" d="M359.18,2078.18c-12.55,3.52-21.26-3.85-30.58-9.45,0-.28.09-.56.14-.84h13.79l-8.36-21.5-.84,0c-.37.8-.79,1.59-1.13,2.41-3.68,9.12-7.42,18.22-11,27.4-.81,2.1-1.94,2.72-4.05,2.61-3.05-.15-6.11,0-9.67,0,1.59-3.79,3-7.21,4.45-10.59,4.57-10.51,9.23-21,13.75-31.51,1-2.29,2.26-3,4.86-3.34,6.6-.83,10.17,1.19,12.66,7.79,4.61,12.22,10.43,24,15.73,36a5.2,5.2,0,0,1,.21,1.07" transform="translate(-59.46 -1960)"/><path class="cls-3" d="M183.22,2057c2.14,0,3.46.1,4.76,0,4-.34,6.53-2.66,6.6-5.88a6.9,6.9,0,0,0-6.28-7.25c-7.16-1-7.54-.66-7.54,6.52,0,8.5-.06,17,0,25.5,0,2.18-.51,3.17-2.89,3a54.76,54.76,0,0,0-6.9,0c-1.7.06-2.39-.53-2.38-2.3.05-13.57,0-27.13.11-40.69,0-.78,1.08-2.22,1.65-2.21,7.56,0,15.19-.32,22.65.61,7.88,1,14,6.4,13.11,17.35-.6,7.68-7.26,14.62-15.11,15.09a3.48,3.48,0,0,1-2.69-1.05c-1.71-2.5-3.14-5.19-5.13-8.62" transform="translate(-59.46 -1960)"/><path class="cls-3" d="M164.34,2078.79c-3.67,0-7.3.15-10.9-.12-.8-.06-1.81-1.47-2.19-2.46-3.57-9.26-7-18.55-10.51-27.83-.16-.43-.37-.83-.92-2.06-1.73,4.41-3.28,8.15-4.65,12-2.11,5.83-4.18,11.67-6.1,17.57-.69,2.13-1.69,3.15-4.06,3-3.14-.18-6.3,0-10,0,1.72-4.37,3.24-8.33,4.82-12.27,4.13-10.26,8.34-20.49,12.38-30.79a3,3,0,0,1,3.36-2.28c3.07.12,6.15-.09,9.2.11a3.45,3.45,0,0,1,2.54,1.61c5.78,14.12,11.44,28.28,17.11,42.45.06.15,0,.36-.12,1.15" transform="translate(-59.46 -1960)"/><path class="cls-3" d="M301.09,2045.07c-4.33-.86-8.21-2.09-12.15-2.29-7.89-.41-13.69,7.93-12.25,15.3,1.9,9.71,9.16,13.66,18.65,10.51,5.93-2,5.93-2,8.14,3.78,1.37,3.55,1.33,3.48-2.37,5.07a29.93,29.93,0,0,1-19.9,1.43c-12.32-3.18-18.36-14.89-16.72-25.9,1.82-12.25,9.17-18.55,21.47-20.16a32.62,32.62,0,0,1,14.39,1.34c4.36,1.39,4.63,2.26,2.73,6.36-.71,1.55-1.37,3.13-2,4.56" transform="translate(-59.46 -1960)"/><path class="cls-3" d="M155.85,1976.73l26.36,45c-1.21-.5-1.86-.7-2.43-1-7.55-4.34-15.11-8.67-22.61-13.1-.84-.5-1.88-1.59-1.89-2.43-.14-9.43-.09-18.86-.09-28.29l.66-.12" transform="translate(-59.46 -1960)"/><path class="cls-3" d="M263.2,2004.7l-26-44.24.47-.46,16.27,9.39c2.78,1.6,5.63,3.12,8.33,4.87a3.84,3.84,0,0,1,1.67,2.57c.12,9.25.07,18.5.07,27.75l-.76.12" transform="translate(-59.46 -1960)"/><path class="cls-3" d="M207.56,1975h-52l4.92-2.85c6.71-3.85,13.41-7.74,20.18-11.5a3.65,3.65,0,0,1,3-.2c8,4.57,16,9.29,24,14Z" transform="translate(-59.46 -1960)"/><path class="cls-3" d="M210.07,2006.59l-.36-.5-.29-30.34a14.65,14.65,0,0,1,2-1.58c8-4.58,16.11-9.13,24.74-14-4.07,7.12-7.84,13.74-11.61,20.36q-7.22,12.65-14.41,25.29a1.9,1.9,0,0,0-.06.8Z" transform="translate(-59.46 -1960)"/><path class="cls-3" d="M209.42,1975.75l.29,30.34q-9.51,5.52-19,11c-2.54,1.46-5.11,2.88-7.66,4.33H183l25.36-44.06c.33-.57.72-1.11,1.08-1.66" transform="translate(-59.46 -1960)"/><path class="cls-3" d="M210,2006.62l45.67-.16a31.8,31.8,0,0,1,7.29.57l-10.9,6.31c-4.47,2.57-9,5.06-13.41,7.73a3.29,3.29,0,0,1-3.88,0c-8.21-4.87-16.48-9.64-24.73-14.44l0,0" transform="translate(-59.46 -1960)"/><path class="cls-3" d="M183,2021.46l-.05.1v-.09h0" transform="translate(-59.46 -1960)"/></g></svg>